<svg xmlns="http://www.w3.org/2000/svg" viewBox="0 0 960 540">
  <defs>
    <linearGradient id="weather-gradient" x1="0%" y1="0%" x2="100%" y2="100%">
      <stop offset="0%" style="stop-color:#43e97b;stop-opacity:1" />
      <stop offset="100%" style="stop-color:#38f9d7;stop-opacity:1" />
    </linearGradient>
  </defs>
  <rect width="960" height="540" fill="url(#weather-gradient)"/>
  <g transform="translate(480, 200)">
    <circle cx="0" cy="0" r="35" fill="#FFD700" opacity="0.4"/>
    <g opacity="0.4">
      <line x1="0" y1="-50" x2="0" y2="-60" stroke="#FFD700" stroke-width="4"/>
      <line x1="0" y1="50" x2="0" y2="60" stroke="#FFD700" stroke-width="4"/>
      <line x1="50" y1="0" x2="60" y2="0" stroke="#FFD700" stroke-width="4"/>
      <line x1="-50" y1="0" x2="-60" y2="0" stroke="#FFD700" stroke-width="4"/>
      <line x1="35" y1="-35" x2="42" y2="-42" stroke="#FFD700" stroke-width="4"/>
      <line x1="35" y1="35" x2="42" y2="42" stroke="#FFD700" stroke-width="4"/>
      <line x1="-35" y1="-35" x2="-42" y2="-42" stroke="#FFD700" stroke-width="4"/>
      <line x1="-35" y1="35" x2="-42" y2="42" stroke="#FFD700" stroke-width="4"/>
    </g>
    <path d="M-30,20 Q-30,0 -10,0 Q-10,-15 5,-15 Q20,-15 20,0 Q40,0 40,20 Q40,40 20,40 L-30,40 Q-30,40 -30,20 Z" fill="white" opacity="0.5"/>
  </g>
  <text x="480" y="320" font-family="Arial, sans-serif" font-size="48" font-weight="bold" fill="white" text-anchor="middle">Weather Dashboard</text>
  <text x="480" y="360" font-family="Arial, sans-serif" font-size="24" fill="white" opacity="0.9" text-anchor="middle">Real-time Forecasting</text>
</svg>
