<svg xmlns="http://www.w3.org/2000/svg" viewBox="0 0 960 540">
  <defs>
    <linearGradient id="postgresql-gradient" x1="0%" y1="0%" x2="100%" y2="100%">
      <stop offset="0%" style="stop-color:#43e97b;stop-opacity:1" />
      <stop offset="100%" style="stop-color:#38f9d7;stop-opacity:1" />
    </linearGradient>
  </defs>
  <rect width="960" height="540" fill="url(#postgresql-gradient)"/>
  <g transform="translate(480, 200)">
    <ellipse cx="0" cy="0" rx="60" ry="50" fill="white" opacity="0.2"/>
    <rect x="-50" y="-10" width="100" height="20" fill="white" opacity="0.3"/>
    <path d="M-50,-40 Q0,-60 50,-40 M-50,-20 Q0,-40 50,-20 M-50,0 Q0,-20 50,0 M-50,20 Q0,0 50,20 M-50,40 Q0,20 50,40" stroke="white" stroke-width="3" fill="none" opacity="0.4"/>
    <circle cx="-30" cy="-25" r="8" fill="white" opacity="0.5"/>
    <circle cx="0" cy="-35" r="8" fill="white" opacity="0.5"/>
    <circle cx="30" cy="-25" r="8" fill="white" opacity="0.5"/>
    <text x="0" y="75" font-family="monospace" font-size="24" font-weight="bold" fill="white" opacity="0.6" text-anchor="middle">PostgreSQL</text>
  </g>
  <text x="480" y="320" font-family="Arial, sans-serif" font-size="44" font-weight="bold" fill="white" text-anchor="middle">PostgreSQL配置</text>
  <text x="480" y="365" font-family="Arial, sans-serif" font-size="22" fill="white" opacity="0.9" text-anchor="middle">Database Installation Guide</text>
</svg>
