<svg xmlns="http://www.w3.org/2000/svg" viewBox="0 0 960 540">
  <defs>
    <linearGradient id="problem-gradient" x1="0%" y1="0%" x2="100%" y2="100%">
      <stop offset="0%" style="stop-color:#667eea;stop-opacity:1" />
      <stop offset="100%" style="stop-color:#764ba2;stop-opacity:1" />
    </linearGradient>
  </defs>
  <rect width="960" height="540" fill="url(#problem-gradient)"/>
  <g transform="translate(480, 200)">
    <circle cx="0" cy="0" r="70" fill="white" opacity="0.2"/>
    <circle cx="0" cy="0" r="20" fill="white" opacity="0.5"/>
    <path d="M-50,0 L-70,0 M50,0 L70,0 M0,-50 L0,-70 M0,50 L0,70" stroke="white" stroke-width="4" opacity="0.3"/>
    <path d="M-35,-35 L-25,-25 M35,-35 L25,-25 M-35,35 L-25,25 M35,35 L25,25" stroke="white" stroke-width="5" opacity="0.4"/>
    <rect x="-80" y="-50" width="30" height="8" rx="4" fill="white" opacity="0.4"/>
    <rect x="-80" y="-35" width="45" height="8" rx="4" fill="white" opacity="0.4"/>
    <rect x="-80" y="-20" width="35" height="8" rx="4" fill="white" opacity="0.4"/>
    <rect x="50" y="-50" width="30" height="8" rx="4" fill="white" opacity="0.4"/>
    <rect x="35" y="-35" width="45" height="8" rx="4" fill="white" opacity="0.4"/>
    <rect x="45" y="-20" width="35" height="8" rx="4" fill="white" opacity="0.4"/>
  </g>
  <text x="480" y="340" font-family="Arial, sans-serif" font-size="48" font-weight="bold" fill="white" text-anchor="middle">Problem Solving</text>
  <text x="480" y="385" font-family="Arial, sans-serif" font-size="24" fill="white" opacity="0.9" text-anchor="middle">Practice and Master Algorithms</text>
</svg>
